<?xml version="1.0" encoding="UTF-8"?>
<!DOCTYPE svg  PUBLIC '-//W3C//DTD SVG 1.1//EN'  'http://www.w3.org/Graphics/SVG/1.1/DTD/svg11.dtd'>
<svg clip-rule="evenodd" fill-rule="evenodd" stroke-linejoin="round" stroke-miterlimit="2" version="1.1" viewBox="0 0 500 294" xml:space="preserve" xmlns="http://www.w3.org/2000/svg"><rect width="499.37" height="293.14" fill="none"/><path d="m215.4 272.7-198.98-198.98c-16.141-16.141-16.141-42.351-0-58.492 16.141-16.142 42.351-16.142 58.492-0l173.63 173.63 173.63-173.63c16.141-16.142 42.351-16.142 58.492-0 16.141 16.141 16.141 42.351 0 58.492l-198.98 198.98c-1.106 1.446-2.318 2.834-3.639 4.154-8.136 8.137-18.832 12.172-29.504 12.105-10.671 0.067-21.367-3.968-29.503-12.105-1.321-1.32-2.533-2.708-3.639-4.154z" fill="#363636"/></svg>
