<?xml version="1.0" encoding="UTF-8"?>
<!DOCTYPE svg  PUBLIC '-//W3C//DTD SVG 1.1//EN'  'http://www.w3.org/Graphics/SVG/1.1/DTD/svg11.dtd'>
<svg clip-rule="evenodd" fill-rule="evenodd" stroke-linecap="round" stroke-miterlimit="30" version="1.1" viewBox="0 0 506 505" xml:space="preserve" xmlns="http://www.w3.org/2000/svg"><rect width="505.47" height="504.63" fill="none"/><circle cx="251.84" cy="254.63" r="250" fill="#ffc053"/><path d="m426.84 154.63c-0-13.798-11.202-25-25-25h-300c-13.798-0-25 11.202-25 25-0 13.797 11.202 25 25 25h300c13.798-0 25-11.203 25-25z" fill="#fff" stroke="#000" stroke-width=".65px"/><path d="m426.84 254.63c-0-13.798-11.202-25-25-25h-300c-13.798-0-25 11.202-25 25-0 13.797 11.202 25 25 25h300c13.798-0 25-11.203 25-25z" fill="#fff" stroke="#000" stroke-width=".65px"/><path d="m421.84 354.63c-0-13.798-11.202-25-25-25h-300c-13.798-0-25 11.202-25 25-0 13.797 11.202 25 25 25h300c13.798-0 25-11.203 25-25z" fill="#fff" stroke="#000" stroke-width=".65px"/></svg>
